<?xml version="1.0" encoding="UTF-8"?>
<svg width="512px" height="512px" viewBox="0 0 512 512" version="1.1" xmlns="http://www.w3.org/2000/svg" xmlns:xlink="http://www.w3.org/1999/xlink">
    <!-- Generator: Sketch 49.1 (51147) - http://www.bohemiancoding.com/sketch -->
    <title>Icon</title>
    <desc>Created with Sketch.</desc>
    <defs>
        <linearGradient x1="50%" y1="0%" x2="50%" y2="100%" id="linearGradient-1">
            <stop stop-color="#373739" offset="0%"></stop>
            <stop stop-color="#1A1A1B" offset="100%"></stop>
        </linearGradient>
    </defs>
    <g id="Icon" stroke="none" stroke-width="1" fill="none" fill-rule="evenodd">
        <g id="Group-2">
            <g id="Icon" transform="translate(144.000000, 60.000000)">
                <g id="Group">
                    <g id="Group-2">
                        <g id="Group-3">
                            <path d="M323,209 L0,124 L7.10542736e-15,30.3697591 C5.0763661e-15,13.8012166 13.4314575,0.36975912 30,0.36975912 C36.4041608,0.36975912 42.6402641,2.41914198 47.7959711,6.218084 L323,209 Z" id="R" fill="#E5717F"></path>
                            <polygon id="Y" fill="#F5A623" points="282 196 -1.42108547e-14 147 -1.42108547e-14 78"></polygon>
                            <polygon id="B" fill="#21B3D3" points="282 196 0 196 0 137"></polygon>
                        </g>
                        <polygon id="P" fill="#8E5AF7" points="0 196 294 196 294 392 0 392"></polygon>
                    </g>
                </g>
            </g>
            <path d="M146.141456,0 L365.858544,0 C416.675112,2.47372738e-15 435.102427,5.29105984 453.680205,15.2265641 C472.257983,25.1620684 486.837932,39.7420171 496.773436,58.3197949 C506.70894,76.8975727 512,95.3248882 512,146.141456 L512,365.858544 C512,416.675112 506.70894,435.102427 496.773436,453.680205 C486.837932,472.257983 472.257983,486.837932 453.680205,496.773436 C435.102427,506.70894 416.675112,512 365.858544,512 L146.141456,512 C95.3248882,512 76.8975727,506.70894 58.3197949,496.773436 C39.7420171,486.837932 25.1620684,472.257983 15.2265641,453.680205 C5.29105984,435.102427 6.22323475e-15,416.675112 0,365.858544 L0,146.141456 C1.64915158e-15,95.3248882 5.29105984,76.8975727 15.2265641,58.3197949 C25.1620684,39.7420171 39.7420171,25.1620684 58.3197949,15.2265641 C76.8975727,5.29105984 95.3248882,9.33485213e-15 146.141456,0 Z M414.010921,278.793583 C417.461227,276.763242 420.348835,273.902056 422.410805,270.470558 C429.237836,259.10912 425.561973,244.364453 414.200535,237.537422 L180.702458,97.2296013 C176.969313,94.986373 172.696116,93.8012705 168.340838,93.8013045 C155.086004,93.8014078 144.340922,104.546658 144.341025,117.801492 L144.343191,395.510539 C144.343224,399.790815 145.487951,403.993204 147.658732,407.682171 C154.381043,419.105882 169.091299,422.91712 180.51501,416.19481 L414.010921,278.793583 Z" id="Combined-Shape" fill="url(#linearGradient-1)"></path>
        </g>
    </g>
</svg>