<?xml version="1.0" encoding="UTF-8"?>
<svg width="300px" height="300px" viewBox="0 0 300 300" version="1.1" xmlns="http://www.w3.org/2000/svg" xmlns:xlink="http://www.w3.org/1999/xlink">
    <!-- Generator: Sketch 49.1 (51147) - http://www.bohemiancoding.com/sketch -->
    <title>Icon</title>
    <desc>Created with Sketch.</desc>
    <defs>
        <linearGradient x1="50%" y1="0%" x2="50%" y2="100%" id="linearGradient-1">
            <stop stop-color="#373739" offset="0%"></stop>
            <stop stop-color="#1A1A1B" offset="100%"></stop>
        </linearGradient>
    </defs>
    <g id="Icon" stroke="none" stroke-width="1" fill="none" fill-rule="evenodd">
        <g id="Group-2">
            <g>
                <path d="M250.250401,135.952524 L76.171875,104.221294 L76.171875,52.5530445 C76.171875,42.8449142 84.0418696,34.9749195 93.75,34.9749195 C97.2257863,34.9749195 100.623556,36.0053618 103.513837,37.9360006 L250.250401,135.952524 Z" id="Path-2" fill="#E5717F"></path>
                <path d="M246.11879,134.29988 L76.171875,129.125484 L76.171875,97.8910145 C76.171875,88.1828842 84.0418696,80.3128895 93.75,80.3128895 C95.7883046,80.3128895 97.8110787,80.6674027 99.7278962,81.3605809 L246.11879,134.29988 Z" id="Path-2" fill="#F5A623"></path>
                <path d="M246.394231,134.29988 L76.171875,158.789062 L76.171875,123.653462 C76.171875,113.945331 84.0418696,106.075337 93.75,106.075337 C94.8333865,106.075337 95.9144532,106.175494 96.9793995,106.374531 L246.394231,134.29988 Z" id="Path-2" fill="#21B3D3"></path>
                <path d="M247.995025,134.383347 L257.409992,139.661282 L261.449893,151.09681 L259.175299,157.840838 L256.821557,161.945899 L253.290944,167.223835 L103.319004,264.548371 C95.1753848,269.833186 84.2894884,267.515667 79.0046737,259.372049 C77.155799,256.523031 76.171875,253.199402 76.171875,249.803045 L76.171875,151.961472 C76.171875,142.253341 84.0418696,134.383347 93.75,134.383347 L244.973701,134.383347 L247.995025,134.383347 Z" id="V" fill="#8E5AF7"></path>
            </g>
            <path d="M85.6297596,0 L214.37024,0 C244.145573,1.44944963e-15 254.942829,3.10023037 265.828245,8.92181491 C276.713662,14.7433995 285.256601,23.2863382 291.078185,34.1717548 C296.89977,45.0571715 300,55.8544267 300,85.6297596 L300,214.37024 C300,244.145573 296.89977,254.942829 291.078185,265.828245 C285.256601,276.713662 276.713662,285.256601 265.828245,291.078185 C254.942829,296.89977 244.145573,300 214.37024,300 L85.6297596,300 C55.8544267,300 45.0571715,296.89977 34.1717548,291.078185 C23.2863382,285.256601 14.7433995,276.713662 8.92181491,265.828245 C3.10023037,254.942829 3.64642661e-15,244.145573 0,214.37024 L0,85.6297596 C9.66299756e-16,55.8544267 3.10023037,45.0571715 8.92181491,34.1717548 C14.7433995,23.2863382 23.2863382,14.7433995 34.1717548,8.92181491 C45.0571715,3.10023037 55.8544267,5.46963992e-15 85.6297596,0 Z M236.319438,173.429563 C240.48059,171.124281 243.922795,167.712655 246.265115,163.572238 C253.276044,151.179323 248.913083,135.449399 236.520168,128.438469 L114.858819,59.6121155 C110.986515,57.4214727 106.613212,56.2701886 102.164207,56.2702233 C87.9256153,56.2703343 76.3830465,67.8130831 76.3831576,82.0516743 L76.3842199,218.277929 C76.384254,222.648854 77.4955689,226.948012 79.6137339,230.771409 C86.5138032,243.226389 102.204171,247.729534 114.65915,240.829464 L236.319438,173.429563 Z" id="Combined-Shape" fill="url(#linearGradient-1)"></path>
        </g>
    </g>
</svg>