<?xml version="1.0" encoding="UTF-8"?>
<svg width="32px" height="32px" viewBox="0 0 32 32" version="1.1" xmlns="http://www.w3.org/2000/svg" xmlns:xlink="http://www.w3.org/1999/xlink">
    <!-- Generator: Sketch 50.2 (55047) - http://www.bohemiancoding.com/sketch -->
    <title>icon-filter-date</title>
    <desc>Created with Sketch.</desc>
    <defs></defs>
    <g id="Icons" stroke="none" stroke-width="1" fill="none" fill-rule="evenodd">
        <g id="icon-filter-date">
            <rect id="Rectangle" fill="#2D7FC1" x="0" y="0" width="32" height="32" rx="8"></rect>
            <path d="M12.9444444,7.76599574 L12.9444444,10.0638681 C12.9444444,10.4868947 12.5962215,10.8298255 12.1666667,10.8298255 C11.7371119,10.8298255 11.3888889,10.4868947 11.3888889,10.0638681 L11.3888889,7.76599574 C11.3888889,7.34296913 11.7371119,7.0000383 12.1666667,7.0000383 C12.5962215,7.0000383 12.9444444,7.34296913 12.9444444,7.76599574 Z M24.6111111,10.0638681 L24.6111111,23.0851447 C24.6111111,23.9311979 23.9146652,24.6170596 23.0555556,24.6170596 L9.05555556,24.6170596 C8.19644594,24.6170596 7.5,23.9311979 7.5,23.0851447 L7.5,10.0638681 C7.5,9.21781485 8.19644594,8.53195319 9.05555556,8.53195319 L10.2222222,8.53195319 C10.4369996,8.53195319 10.6111111,8.70341861 10.6111111,8.91493191 L10.6111111,9.99803404 C10.5975043,10.8032712 11.2024287,11.4891224 12.01395,11.5885447 C12.4509752,11.6309308 12.8858363,11.489457 13.2112213,11.1990353 C13.5366062,10.9086136 13.722207,10.4962954 13.7222222,10.0638298 L13.7222222,8.91489362 C13.7222222,8.70338031 13.8963337,8.53191489 14.1111111,8.53191489 L18,8.53191489 C18.2147774,8.53191489 18.3888889,8.70338031 18.3888889,8.91489362 L18.3888889,9.99803404 C18.3752955,10.8032389 18.9801687,11.48907 19.79165,11.5885447 C20.2286879,11.6309538 20.6635702,11.4894905 20.9889729,11.1990661 C21.3143757,10.9086418 21.4999869,10.4963101 21.5,10.0638298 L21.5,8.91489362 C21.5,8.70338031 21.6741115,8.53191489 21.8888889,8.53191489 L23.0555556,8.53191489 C23.9146652,8.53191489 24.6111111,9.21777655 24.6111111,10.0638298 L24.6111111,10.0638681 Z M22.6666667,14.6596128 L9.44444444,14.6596128 C9.22966704,14.6596128 9.05555556,14.8310782 9.05555556,15.0425915 L9.05555556,22.702166 C9.05555556,22.9136793 9.22966704,23.0851447 9.44444444,23.0851447 L22.6666667,23.0851447 C22.8814441,23.0851447 23.0555556,22.9136793 23.0555556,22.702166 L23.0555556,15.0425915 C23.0555659,14.9410126 23.0145983,14.8435906 22.9416664,14.7717599 C22.8687345,14.6999292 22.7698132,14.6595745 22.6666667,14.6595745 L22.6666667,14.6596128 Z M19.9444444,7.0000383 C20.3739992,7.0000383 20.7222222,7.34296913 20.7222222,7.76599574 L20.7222222,10.0638681 C20.7222222,10.4868947 20.3739992,10.8298255 19.9444444,10.8298255 C19.5148896,10.8298255 19.1666667,10.4868947 19.1666667,10.0638681 L19.1666667,7.76599574 C19.1666564,7.56284456 19.248596,7.36801045 19.3944588,7.22435728 C19.5403215,7.08070411 19.7381582,7 19.9444444,7 L19.9444444,7.0000383 Z" id="Shape" fill="#FFFFFF" fill-rule="nonzero"></path>
        </g>
    </g>
</svg>