<?xml version="1.0" encoding="UTF-8"?>
<svg width="14px" height="14px" viewBox="0 0 14 14" version="1.1" xmlns="http://www.w3.org/2000/svg" xmlns:xlink="http://www.w3.org/1999/xlink">
    <!-- Generator: Sketch 50.2 (55047) - http://www.bohemiancoding.com/sketch -->
    <title>icon-filter-invert</title>
    <desc>Created with Sketch.</desc>
    <defs></defs>
    <g id="Icons" stroke="none" stroke-width="1" fill="none" fill-rule="evenodd">
        <g id="icon-filter-invert" fill="#FFFFFF" fill-rule="nonzero">
            <path d="M6.859,13.7182286 C3.07190457,13.7182286 0.00185714286,10.6481811 0.00185714286,6.86108571 C0.00185714286,3.07399029 3.07190457,0.00394285714 6.859,0.00394285714 C10.6460954,0.00394285714 13.7161429,3.07399029 13.7161429,6.86108571 C13.7161429,8.67971307 12.993696,10.4238542 11.7077322,11.7098179 C10.4217685,12.9957817 8.67762736,13.7182286 6.859,13.7182286 Z M11.1116571,10.6966286 C13.1473375,8.4341734 13.0561275,4.97418565 10.9040743,2.82212493 C8.75202122,0.670064199 5.29203379,0.578841907 3.02957143,2.61451429 C2.97295135,2.66754854 2.94040571,2.74137798 2.93945128,2.81895088 C2.93849685,2.89652377 2.96921618,2.9711316 3.02451429,3.02554286 L10.7006571,10.7016857 C10.7550674,10.7569747 10.829669,10.7876882 10.9072347,10.7867338 C10.9848005,10.7857794 11.0586237,10.7532396 11.1116571,10.6966286 Z" id="Shape"></path>
        </g>
    </g>
</svg>