<?xml version="1.0" encoding="UTF-8"?>
<svg width="32px" height="32px" viewBox="0 0 32 32" version="1.1" xmlns="http://www.w3.org/2000/svg" xmlns:xlink="http://www.w3.org/1999/xlink">
    <!-- Generator: Sketch 50.2 (55047) - http://www.bohemiancoding.com/sketch -->
    <title>icon-filter-tag</title>
    <desc>Created with Sketch.</desc>
    <defs></defs>
    <g id="Icons" stroke="none" stroke-width="1" fill="none" fill-rule="evenodd">
        <g id="icon-filter-tag">
            <rect id="Rectangle" fill="#F7C758" x="0" y="0" width="32" height="32" rx="8"></rect>
            <path d="M22.3082981,8.00000012 L17.0435417,8.00174558 C16.426265,8.00194939 15.8343552,8.24737507 15.3980435,8.68402437 L7.3414908,16.7463565 C6.88616973,17.2020295 6.88616973,17.9404483 7.3414908,18.3961213 L13.6658932,24.725605 C13.8844301,24.9443317 14.1809436,25.067227 14.4901356,25.067227 C14.7993277,25.067227 15.0958412,24.9443317 15.3143781,24.725605 L23.3715126,16.6626135 C23.8075025,16.2263236 24.0524676,15.6348024 24.052589,15.0180074 L24.054412,9.74603649 C24.0545664,9.28289809 23.8706485,8.83868543 23.5431529,8.51120438 C23.2156573,8.18372334 22.7714365,7.99982514 22.3082981,8.00000012 Z M20.5536896,12.6700607 C20.081778,12.670453 19.6561156,12.3864822 19.475251,11.9506052 C19.2943863,11.5147283 19.3939515,11.0128173 19.7275048,10.6789865 C20.061058,10.3451558 20.562886,10.2451732 20.9989133,10.4256753 C21.4349405,10.6061775 21.7192652,11.0316035 21.7192653,11.5035153 C21.7193888,11.8127754 21.5966515,12.1094174 21.3780552,12.328181 C21.159459,12.5469445 20.8629109,12.6699088 20.5536508,12.6700219 L20.5536896,12.6700607 Z" id="Shape" fill="#FFFFFF" fill-rule="nonzero"></path>
        </g>
    </g>
</svg>