<?xml version="1.0" encoding="UTF-8"?>
<svg width="12px" height="14px" viewBox="0 0 12 14" version="1.1" xmlns="http://www.w3.org/2000/svg" xmlns:xlink="http://www.w3.org/1999/xlink">
    <!-- Generator: Sketch 52.5 (67469) - http://www.bohemiancoding.com/sketch -->
    <title>icon-download</title>
    <desc>Created with Sketch.</desc>
    <g id="Icons" stroke="none" stroke-width="1" fill="none" fill-rule="evenodd">
        <g id="icon-download" fill="#FFFFFF" fill-rule="nonzero">
            <path d="M10.1306383,13.7091277 L1.79021277,13.7091277 C0.803430651,13.7078633 0.00389773041,12.9080506 0.0029787234,11.9212681 L0.0029787234,10.7296 C0.0029787234,10.4005793 0.269702702,10.1338553 0.598723404,10.1338553 C0.927744106,10.1338553 1.19446809,10.4005793 1.19446809,10.7296 L1.19446809,11.9212681 C1.19474714,12.2502021 1.46127888,12.5168138 1.79021277,12.5171915 L10.1306383,12.5171915 C10.4595518,12.5167646 10.7260548,12.2501817 10.726383,11.9212681 L10.726383,10.7295702 C10.726383,10.4005495 10.993107,10.1338255 11.3221277,10.1338255 C11.6511484,10.1338255 11.9178723,10.4005495 11.9178723,10.7295702 L11.9178723,11.9212383 C11.9169697,12.9080324 11.117432,13.7078633 10.1306383,13.7091277 Z M5.96042553,0.00619574468 C6.28944623,0.00619574468 6.55617021,0.272919724 6.55617021,0.601940426 L6.55617021,6.55617021 L8.04407234,6.55617021 C8.15758716,6.55819076 8.26065495,6.62288688 8.31182027,6.7242368 C8.36298558,6.82558673 8.35383906,6.94693293 8.28805957,7.03946809 L6.20628936,10.0104766 C6.15092227,10.0906198 6.05972571,10.1384598 5.96231702,10.1384598 C5.86490833,10.1384598 5.77371178,10.0906198 5.71834468,10.0104766 L3.6367234,7.03946809 C3.57092709,6.94694624 3.56176314,6.82560121 3.612918,6.72424724 C3.66407287,6.62289327 3.76713736,6.55819161 3.88065106,6.55617021 L5.36468085,6.55617021 L5.36468085,0.601940426 C5.36468085,0.272919724 5.63140483,0.00619574468 5.96042553,0.00619574468 Z" id="Shape"></path>
        </g>
    </g>
</svg>