<?xml version="1.0" encoding="UTF-8"?>
<svg width="32px" height="32px" viewBox="0 0 32 32" version="1.1" xmlns="http://www.w3.org/2000/svg" xmlns:xlink="http://www.w3.org/1999/xlink">
    <!-- Generator: Sketch 50.2 (55047) - http://www.bohemiancoding.com/sketch -->
    <title>icon-filter-playlist</title>
    <desc>Created with Sketch.</desc>
    <defs></defs>
    <g id="Icons" stroke="none" stroke-width="1" fill="none" fill-rule="evenodd">
        <g id="icon-filter-playlist">
            <rect id="Rectangle" fill="#A22DC1" x="0" y="0" width="32" height="32" rx="8"></rect>
            <path d="M8.85002326,19.7725488 L10.5563395,19.3460326 C10.9289563,19.2528317 11.1903563,18.9180354 11.1904,18.5339395 L11.1904,7.84591628 C11.1904,7.38353835 11.5652314,7.00870698 12.0276093,7.00870698 C12.4899872,7.00870698 12.8648186,7.38353835 12.8648186,7.84591628 L12.8648186,21.8897674 C12.8648186,23.4739767 11.4434884,24.5902279 9.5159814,24.5902279 C8.85589331,24.6035905 8.21810071,24.3512553 7.74583339,23.8898895 C7.27356607,23.4285236 7.00640739,22.7967969 7.00435349,22.1365767 C7.00432516,21.0184411 7.76528079,20.0437703 8.85002326,19.7725488 Z M15.3762791,8.68316744 L23.7483721,8.68316744 C24.21075,8.68316744 24.5855814,9.05799881 24.5855814,9.52037674 C24.5855814,9.98275467 24.21075,10.357586 23.7483721,10.357586 L15.3762791,10.357586 C14.9139011,10.357586 14.5390698,9.98275467 14.5390698,9.52037674 C14.5390698,9.05799881 14.9139011,8.68316744 15.3762791,8.68316744 Z M15.3762791,14.5436326 L23.7483721,14.5436326 C24.0474782,14.5436325 24.3238636,14.7032037 24.4734166,14.9622372 C24.6229697,15.2212707 24.6229697,15.5404131 24.4734166,15.7994465 C24.3238636,16.05848 24.0474782,16.2180512 23.7483721,16.2180512 L15.3762791,16.2180512 C14.9139011,16.2180512 14.5390698,15.8432198 14.5390698,15.3808419 C14.5390698,14.9184639 14.9139011,14.5436326 15.3762791,14.5436326 Z M15.3762791,20.4040977 L23.7483721,20.4040977 C24.21075,20.4040977 24.5855814,20.778929 24.5855814,21.241307 C24.5855814,21.7036849 24.21075,22.0785163 23.7483721,22.0785163 L15.3762791,22.0785163 C14.9139011,22.0785163 14.5390698,21.7036849 14.5390698,21.241307 C14.5390698,20.778929 14.9139011,20.4040977 15.3762791,20.4040977 Z" id="Shape" fill="#FFFFFF" fill-rule="nonzero"></path>
        </g>
    </g>
</svg>