<?xml version="1.0" encoding="UTF-8"?>
<svg width="14px" height="14px" viewBox="0 0 14 14" version="1.1" xmlns="http://www.w3.org/2000/svg" xmlns:xlink="http://www.w3.org/1999/xlink">
    <!-- Generator: Sketch 50.2 (55047) - http://www.bohemiancoding.com/sketch -->
    <title>icon-play-small</title>
    <desc>Created with Sketch.</desc>
    <defs></defs>
    <g id="Icons" stroke="none" stroke-width="1" fill="none" fill-rule="evenodd">
        <g id="icon-play-small" fill="#FFFFFF" fill-rule="nonzero">
            <g id="Layer_1">
                <path d="M6.86,13.7202286 C3.07290457,13.7202286 0.00285714286,10.6501811 0.00285714286,6.86308571 C0.00285714286,3.07599029 3.07290457,0.00594285714 6.86,0.00594285714 C10.6470954,0.00594285714 13.7171429,3.07599029 13.7171429,6.86308571 C13.7171429,10.6501811 10.6470954,13.7202286 6.86,13.7202286 L6.86,13.7202286 Z M10.2503429,6.34857143 L5.112,3.77477143 C4.93483381,3.68648849 4.72459759,3.69618143 4.5563063,3.80039169 C4.388015,3.90460194 4.28564163,4.08848481 4.28571429,4.28642857 L4.28571429,9.43428571 C4.28572081,9.63218881 4.38812595,9.81599897 4.5564035,9.92015416 C4.72468104,10.0243093 4.93487021,10.0339791 5.112,9.94571429 L10.2503429,7.37188571 C10.4435353,7.27449011 10.5653972,7.07658298 10.5653972,6.86022857 C10.5653972,6.64387416 10.4435353,6.44596704 10.2503429,6.34857143 Z" id="Shape"></path>
            </g>
        </g>
    </g>
</svg>