<?xml version="1.0" encoding="UTF-8"?>
<svg width="18px" height="14px" viewBox="0 0 18 14" version="1.1" xmlns="http://www.w3.org/2000/svg" xmlns:xlink="http://www.w3.org/1999/xlink">
    <!-- Generator: Sketch 50.2 (55047) - http://www.bohemiancoding.com/sketch -->
    <title>icon-shuffle</title>
    <desc>Created with Sketch.</desc>
    <defs></defs>
    <g id="Icons" stroke="none" stroke-width="1" fill="none" fill-rule="evenodd">
        <g id="icon-shuffle" fill="#FFFFFF" fill-rule="nonzero">
            <path d="M14.1129177,13.9250928 C13.9966087,14.0108696 13.8440037,14.0227438 13.7166413,13.9559271 C13.589279,13.8891104 13.5081574,13.7546188 13.5059892,13.6066866 L13.5059892,11.6702822 L11.9445605,11.6702822 C10.8064424,11.6697931 9.73029251,11.1329433 9.0199618,10.2113123 L8.42147226,9.43269226 C8.20160249,9.14747574 8.20160249,8.74247629 8.42147226,8.45725977 C8.56329031,8.27310109 8.77827307,8.16585523 9.0056156,8.16585523 C9.23295814,8.16585523 9.4479409,8.27310109 9.58975895,8.45725977 L10.1896737,9.23782345 C10.6169161,9.79214077 11.264192,10.1150095 11.9487237,10.1152579 L13.5059517,10.1152579 L13.5059517,8.17329474 C13.5081199,8.02536254 13.5892415,7.89087091 13.7166038,7.8240542 C13.8439662,7.75723749 13.9965712,7.76911171 14.1128802,7.85488851 L17.8440913,10.5715844 C17.944767,10.6440145 18.0048136,10.7629725 18.0048136,10.8899907 C18.0048136,11.0170088 17.944767,11.1359668 17.8440913,11.2083969 L14.1129177,13.9250928 Z M14.1129177,6.15055415 C13.9966087,6.23633096 13.8440037,6.24820517 13.7166413,6.18138846 C13.589279,6.11457175 13.5081574,5.98008012 13.5059892,5.83214792 L13.5059892,3.89504387 L11.9485736,3.89504387 C11.2645389,3.89342948 10.6172938,4.21588389 10.191249,4.77053466 L5.99240809,10.2113123 C5.28228674,11.1356684 4.20353642,11.673023 3.0634962,11.6702822 L0.755352659,11.6702822 C0.34106846,11.6702822 0.00522476006,11.3222043 0.00522476006,10.8928284 C0.00522476006,10.4634525 0.34106846,10.1153745 0.755352659,10.1153745 L3.0634962,10.1153745 C3.74752626,10.1170729 4.39479665,9.79467002 4.82085834,9.24003919 L9.0199618,3.79898944 C9.72987832,2.87452334 10.8085781,2.33709591 11.9485736,2.3399029 L13.5059517,2.3399029 L13.5059517,0.398717215 C13.5081336,0.250792005 13.5892604,0.116313432 13.7166201,0.0495062792 C13.8439798,-0.017300874 13.9965766,-0.00542323813 14.1128802,0.080349857 L17.8440913,2.79704577 C17.944767,2.86946708 18.0048149,2.98841943 18.0048149,3.11543257 C18.0048149,3.2424457 17.944767,3.36139805 17.8440913,3.43381936 L14.1129177,6.15055415 Z M5.99495853,3.80229362 L6.59104766,4.57768723 C6.84872597,4.91219468 6.79704491,5.39965416 6.47543141,5.66818821 C6.15381791,5.93672226 5.68326887,5.88530344 5.42276097,5.5531586 L4.82085834,4.77010706 C4.39478804,4.2173131 3.74929845,3.89531991 3.06664674,3.89504387 L0.793759208,3.89504387 C0.417185563,3.90334305 0.0891024101,3.63051251 0.0153139803,3.24769691 C-0.0214936378,3.02192651 0.0395109817,2.79081388 0.182082146,2.61590493 C0.324653311,2.44099598 0.534317338,2.34004729 0.75524014,2.33994177 L3.06338369,2.33994177 C4.20419831,2.34041853 5.28290824,2.87850933 5.99495853,3.80229362 Z" id="Shape"></path>
        </g>
    </g>
</svg>