<?xml version="1.0" encoding="UTF-8"?>
<svg width="25px" height="25px" viewBox="0 0 25 25" version="1.1" xmlns="http://www.w3.org/2000/svg" xmlns:xlink="http://www.w3.org/1999/xlink">
    <!-- Generator: Sketch 50.2 (55047) - http://www.bohemiancoding.com/sketch -->
    <title>icon-filter</title>
    <desc>Created with Sketch.</desc>
    <defs></defs>
    <g id="Icons" stroke="none" stroke-width="1" fill="none" fill-rule="evenodd">
        <g id="icon-filter" fill="#8E5AF7" fill-rule="nonzero">
            <g id="Layer_1">
                <path d="M12.2555612,24.5004082 C5.49289082,24.5004082 0.0106632653,19.0181806 0.0106632653,12.2555102 C0.0106632653,5.4928398 5.49289082,0.0106122449 12.2555612,0.0106122449 C19.0182316,0.0106122449 24.5004592,5.4928398 24.5004592,12.2555102 C24.5004592,15.5030591 23.2103754,18.6175968 20.9140116,20.9139606 C18.6176478,23.2103244 15.5031101,24.5004082 12.2555612,24.5004082 Z M18.3780102,10.2146939 C18.9415661,10.2146939 19.3984184,9.75784158 19.3984184,9.19428571 C19.3984184,8.63072985 18.9415661,8.17387755 18.3780102,8.17387755 L6.13311224,8.17387755 C5.56955638,8.17387755 5.11270408,8.63072985 5.11270408,9.19428571 C5.11270408,9.75784158 5.56955638,10.2146939 6.13311224,10.2146939 L18.3780102,10.2146939 Z M8.17392857,12.2555102 C7.6103727,12.2555102 7.15352041,12.7123625 7.15352041,13.2759184 C7.15352041,13.8394742 7.6103727,14.2963265 8.17392857,14.2963265 L16.3371939,14.2963265 C16.9007497,14.2963265 17.357602,13.8394742 17.357602,13.2759184 C17.357602,12.7123625 16.9007497,12.2555102 16.3371939,12.2555102 L8.17392857,12.2555102 Z M10.2147449,16.3371429 C9.65118903,16.3371429 9.19433673,16.7939952 9.19433673,17.357551 C9.19433673,17.9211069 9.65118903,18.3779592 10.2147449,18.3779592 L14.2963776,18.3779592 C14.8599334,18.3779592 15.3167857,17.9211069 15.3167857,17.357551 C15.3167857,16.7939952 14.8599334,16.3371429 14.2963776,16.3371429 L10.2147449,16.3371429 Z" id="Shape"></path>
            </g>
        </g>
    </g>
</svg>