<?xml version="1.0" encoding="UTF-8"?>
<svg width="22px" height="24px" viewBox="0 0 22 24" version="1.1" xmlns="http://www.w3.org/2000/svg" xmlns:xlink="http://www.w3.org/1999/xlink">
    <!-- Generator: Sketch 50.2 (55047) - http://www.bohemiancoding.com/sketch -->
    <title>icon-arrange</title>
    <desc>Created with Sketch.</desc>
    <defs></defs>
    <g id="Icons" stroke="none" stroke-width="1" fill="none" fill-rule="evenodd">
        <g id="icon-arrange" fill="#8E5AF7" fill-rule="nonzero">
            <g id="Layer_1">
                <path d="M4.7112,0.231946667 L8.43856,5.55157333 C8.55634161,5.71726312 8.57271352,5.93454214 8.48109016,6.11601052 C8.3894668,6.29747891 8.2049085,6.4133083 8.00165333,6.41690667 L5.34442667,6.41690667 L5.34442667,22.4110933 C5.34442667,23.0001971 4.86686373,23.47776 4.27776,23.47776 C3.68865627,23.47776 3.21109333,23.0001971 3.21109333,22.4110933 L3.21109333,6.41690667 L0.54704,6.41690667 C0.343794427,6.41328893 0.159253989,6.29745206 0.0676437145,6.11598744 C-0.0239665602,5.93452282 -0.00758993132,5.71725533 0.110186667,5.55157333 L3.83754667,0.231946667 C3.93669544,0.0884745664 4.09997516,0.00283630491 4.27437333,0.00283630491 C4.44877151,0.00283630491 4.61205123,0.0884745664 4.7112,0.231946667 L4.7112,0.231946667 Z M21.24528,17.9373333 L17.5179733,23.2569067 C17.4188125,23.4003787 17.255525,23.4860151 17.08112,23.4860151 C16.906715,23.4860151 16.7434275,23.4003787 16.6442667,23.2569067 L12.91696,17.9373333 C12.7991834,17.7716513 12.7828068,17.5543839 12.874417,17.3729192 C12.9660273,17.1914546 13.1505678,17.0756177 13.3538133,17.072 L16.01104,17.072 L16.01104,1.07781333 C16.01104,0.4887096 16.4886029,0.0111466667 17.0777067,0.0111466667 C17.6668104,0.0111466667 18.1443733,0.4887096 18.1443733,1.07781333 L18.1443733,17.072 L20.8085333,17.072 C21.0117769,17.0756193 21.1963114,17.1914661 21.287903,17.3729379 C21.3794946,17.5544098 21.3630867,17.7716752 21.24528,17.9373333 L21.24528,17.9373333 Z" id="Shape"></path>
            </g>
        </g>
    </g>
</svg>