<?xml version="1.0" encoding="UTF-8"?>
<svg width="25px" height="25px" viewBox="0 0 25 25" version="1.1" xmlns="http://www.w3.org/2000/svg" xmlns:xlink="http://www.w3.org/1999/xlink">
    <!-- Generator: Sketch 50.2 (55047) - http://www.bohemiancoding.com/sketch -->
    <title>icon-play</title>
    <desc>Created with Sketch.</desc>
    <defs></defs>
    <g id="Icons" stroke="none" stroke-width="1" fill="none" fill-rule="evenodd">
        <g id="icon-play" fill="#8E5AF7" fill-rule="nonzero">
            <g id="Layer_1">
                <path d="M12.25,24.5004082 C5.48732959,24.5004082 0.00510204082,19.0181806 0.00510204082,12.2555102 C0.00510204082,5.4928398 5.48732959,0.0106122449 12.25,0.0106122449 C19.0126704,0.0106122449 24.494898,5.4928398 24.494898,12.2555102 C24.494898,19.0181806 19.0126704,24.5004082 12.25,24.5004082 L12.25,24.5004082 Z M18.3041837,11.3367347 L9.12857143,6.74066327 C8.81220323,6.58301517 8.43678141,6.60032399 8.13626124,6.78641373 C7.83574107,6.97250346 7.65293147,7.30086574 7.65306122,7.65433673 L7.65306122,16.8469388 C7.65307287,17.2003372 7.8359392,17.5285696 8.13643481,17.714561 C8.43693043,17.9005524 8.81226823,17.9178198 9.12857143,17.7602041 L18.3041837,13.1640816 C18.6491702,12.9901609 18.8667807,12.6367553 18.8667807,12.2504082 C18.8667807,11.864061 18.6491702,11.5106554 18.3041837,11.3367347 Z" id="Shape"></path>
            </g>
        </g>
    </g>
</svg>