<?xml version="1.0" encoding="UTF-8"?>
<svg width="512px" height="512px" viewBox="0 0 512 512" version="1.1" xmlns="http://www.w3.org/2000/svg" xmlns:xlink="http://www.w3.org/1999/xlink">
    <!-- Generator: Sketch 49.2 (51160) - http://www.bohemiancoding.com/sketch -->
    <title>Prism</title>
    <desc>Created with Sketch.</desc>
    <defs>
        <linearGradient x1="50%" y1="2.69147399%" x2="50%" y2="100%" id="linearGradient-1">
            <stop stop-color="#8E5AF7" offset="0%"></stop>
            <stop stop-color="#8043D6" offset="100%"></stop>
        </linearGradient>
    </defs>
    <g id="Prism" stroke="none" stroke-width="1" fill="none" fill-rule="evenodd">
        <g id="Group" transform="translate(146.003479, 70.000000)">
            <path d="M316.95983,201.874636 L0.606032155,120.09621 L0.606032155,29.4165843 C0.606032155,13.4760041 13.5284257,0.553610575 29.4690059,0.553610575 C35.5465979,0.553610575 41.4691033,2.47208506 46.3923712,6.03558857 L316.95983,201.874636 Z" id="R" fill="#969696"></path>
            <polygon id="Y" fill="#BEBEBE" points="271.996521 184.556851 0.606032155 164.35277 0.606032155 61.4081633"></polygon>
            <polygon id="B" fill="#E1E1E1" points="271.996521 184.556851 0.606032155 205.455951 0.606032155 122.020408"></polygon>
            <polygon id="P" fill="#FFFFFF" points="0.303337009 184.556851 322.699827 184.556851 322.699827 375.052478 0.303337009 375.052478"></polygon>
        </g>
        <rect id="Background" fill="#8E5AF7" style="mix-blend-mode: screen;" x="76" y="76" width="360" height="360"></rect>
        <path d="M146.141456,0 L365.858544,1.18085795e-14 C416.675112,2.47372738e-15 435.102427,5.29105984 453.680205,15.2265641 C472.257983,25.1620684 486.837932,39.7420171 496.773436,58.3197949 C506.70894,76.8975727 512,95.3248882 512,146.141456 L512,365.858544 C512,416.675112 506.70894,435.102427 496.773436,453.680205 C486.837932,472.257983 472.257983,486.837932 453.680205,496.773436 C435.102427,506.70894 416.675112,512 365.858544,512 L146.141456,512 C95.3248882,512 76.8975727,506.70894 58.3197949,496.773436 C39.7420171,486.837932 25.1620684,472.257983 15.2265641,453.680205 C5.29105984,435.102427 6.22323475e-15,416.675112 0,365.858544 L7.87238634e-15,146.141456 C1.64915158e-15,95.3248882 5.29105984,76.8975727 15.2265641,58.3197949 C25.1620684,39.7420171 39.7420171,25.1620684 58.3197949,15.2265641 C76.8975727,5.29105984 95.3248882,9.33485213e-15 146.141456,0 Z M408.041178,268.151817 C409.864297,267.002913 411.406979,265.460308 412.555975,263.637246 C416.805676,256.89443 414.784607,247.983235 408.041791,243.733534 L174.708165,96.6735908 C172.404284,95.2215556 169.736571,94.4510308 167.013288,94.4510521 C159.042997,94.4511146 152.581851,100.912362 152.581914,108.882652 L152.58422,402.984718 C152.584242,405.707678 153.354626,408.375076 154.806373,410.678756 C159.055735,417.421785 167.966829,419.443302 174.709858,415.193939 L408.041178,268.151817 Z" id="Combined-Shape" fill="url(#linearGradient-1)"></path>
    </g>
</svg>