<?xml version="1.0" encoding="UTF-8"?>
<svg width="22px" height="24px" viewBox="0 0 22 24" version="1.1" xmlns="http://www.w3.org/2000/svg" xmlns:xlink="http://www.w3.org/1999/xlink">
    <!-- Generator: Sketch 50.2 (55047) - http://www.bohemiancoding.com/sketch -->
    <title>icon-access</title>
    <desc>Created with Sketch.</desc>
    <defs></defs>
    <g id="Icons" stroke="none" stroke-width="1" fill="none" fill-rule="evenodd">
        <g id="icon-access" fill="#8E5AF7" fill-rule="nonzero">
            <path d="M21.3333333,8 L21.3333333,21.8666667 C21.3333333,22.7503223 20.6169889,23.4666667 19.7333333,23.4666667 L1.6,23.4666667 C0.7163444,23.4666667 0,22.7503223 0,21.8666667 L0,8 C0,7.1163444 0.7163444,6.4 1.6,6.4 L19.7333333,6.4 C20.1576797,6.4 20.564646,6.56857094 20.8647042,6.86862915 C21.1647624,7.16868736 21.3333333,7.57565362 21.3333333,8 Z M8.07976471,11.043841 C7.79406285,11.1152136 7.59360784,11.3718831 7.59358289,11.6663651 L7.59358289,17.4223437 C7.59355562,17.6186262 7.45996139,17.7897086 7.26954011,17.8373169 L6.39766845,18.0553062 C5.84338339,18.1938721 5.45453744,18.6918994 5.45454545,19.2632421 C5.45559488,19.6006076 5.59211157,19.923413 5.83343719,20.159164 C6.0747628,20.3949149 6.40067001,20.5238515 6.73796791,20.5170175 C7.7228877,20.5170175 8.44919786,19.9466431 8.44919786,19.137103 L8.44919786,13.8558196 C8.44916001,13.7085254 8.54941463,13.5801244 8.69232086,13.5444399 L12.4615187,12.6021512 C12.5254113,12.5861875 12.5930956,12.600545 12.6450049,12.641073 C12.6969142,12.681601 12.7272611,12.7437811 12.7272727,12.8096378 L12.7272727,15.9250175 C12.7272504,16.1212875 12.593677,16.2923658 12.4032727,16.3399907 L11.5313797,16.5579586 C10.9770983,16.6965211 10.5882472,17.1945348 10.5882353,17.7658731 C10.5892848,18.1032405 10.7258008,18.426048 10.9671258,18.6618023 C11.2084507,18.8975567 11.5343578,19.0264981 11.8716578,19.0196699 C12.8565989,19.0196699 13.5828877,18.4493169 13.5828877,17.6397768 L13.5828877,10.3529533 C13.5828899,10.1882977 13.5070394,10.0328215 13.3772668,9.93147781 C13.2474942,9.83013414 13.0782707,9.79422384 12.9185241,9.83412977 L8.07976471,11.043841 Z M3.73333333,2.13333333 C3.43878147,2.13333333 3.2,1.89455187 3.2,1.6 C3.2,0.7163444 3.9163444,0 4.8,0 L16.5333333,0 C17.4169889,0 18.1333333,0.7163444 18.1333333,1.6 C18.1333333,1.89455187 17.8945519,2.13333333 17.6,2.13333333 L3.73333333,2.13333333 Z M19.7333333,4.8 C19.7333333,5.09455187 19.4945519,5.33333333 19.2,5.33333333 L2.13333333,5.33333333 C1.83878147,5.33333333 1.6,5.09455187 1.6,4.8 C1.6,3.9163444 2.3163444,3.2 3.2,3.2 L18.1333333,3.2 C19.0169889,3.2 19.7333333,3.9163444 19.7333333,4.8 Z" id="Shape"></path>
        </g>
    </g>
</svg>